<svg width="68" height="59" fill="none" xmlns="http://www.w3.org/2000/svg"><path fill-rule="evenodd" clip-rule="evenodd" d="M32.246.062L32.211 0H17.467L0 29.943l11.99 20.98.015-.026 4.532 7.85 34.665.156L63.376 38.03h-.081l4.497-7.79L50.594.142 32.246.062zM43.652 20.03h.092L35.077 4.977l12.664.056 14.397 25.195-4.507 7.805-11.808.006 4.117-7.13-6.288-10.879zM29.244 4.903l5.91 10.224H26.97L12.963 39.42l-.956 1.65-6.345-11.102L20.283 4.903h8.96zm-5.682 25.951l6.242-10.824h8.184l6.29 10.88-4.119 7.132-12.444.007-4.153-7.195zm-8.728 15.137l2.375-4.118 3.53-6.1 4.146 7.18 12.442-.006-.02.035 17.493.02-6.407 10.985-29.017-.13-4.542-7.866z" fill="#333237"/></svg>